inDegrees=no
num_controls=7
num_derivatives=13
num_iterations=40
num_multipliers=7
num_parameters=0
num_slacks=7
num_states=26
objective=0.426402
objective_accelerations=0.057160
objective_balance=0.001152
objective_effort=0.015224
objective_height=0.346900
objective_ligament=0.005966
solver_duration=596.440282
status=Solve_Succeeded
success=true
DataType=double
version=3
OpenSimVersion=4.5
endheader
time	/jointset/ground_pelvis/pelvis_tilt/value	/jointset/ground_pelvis/pelvis_tx/value	/jointset/ground_pelvis/pelvis_ty/value	/jointset/hip_l/hip_flexion_l/value	/jointset/hip_l/hip_adduction_l/value	/jointset/hip_l/hip_rotation_l/value	/jointset/back/lumbar_extension/value	/jointset/patellofemoral_l/patellar_flexion_l/value	/jointset/knee_l/knee_flexion_l/value	/jointset/knee_l/knee_adduction_l/value	/jointset/knee_l/knee_rotation_l/value	/jointset/ankle_l/ankle_angle_l/value	/jointset/subtalar_l/subtalar_angle_l/value	/jointset/ground_pelvis/pelvis_tilt/speed	/jointset/ground_pelvis/pelvis_tx/speed	/jointset/ground_pelvis/pelvis_ty/speed	/jointset/hip_l/hip_flexion_l/speed	/jointset/hip_l/hip_adduction_l/speed	/jointset/hip_l/hip_rotation_l/speed	/jointset/back/lumbar_extension/speed	/jointset/patellofemoral_l/patellar_flexion_l/speed	/jointset/knee_l/knee_flexion_l/speed	/jointset/knee_l/knee_adduction_l/speed	/jointset/knee_l/knee_rotation_l/speed	/jointset/ankle_l/ankle_angle_l/speed	/jointset/subtalar_l/subtalar_angle_l/speed	/forceset/tau_hip_flexion_l	/forceset/tau_hip_adduction_l	/forceset/tau_hip_rotation_l	/forceset/tau_knee_flexion_l	/forceset/tau_ankle_angle_l	/forceset/tau_subtalar_angle_l	/forceset/tau_lumbar_extension	lambda_cid13_p0	lambda_cid13_p1	lambda_cid13_p2	lambda_cid13_p3	lambda_cid13_p4	lambda_cid13_p5	lambda_cid14_p0	/jointset/ground_pelvis/pelvis_tilt/accel	/jointset/ground_pelvis/pelvis_tx/accel	/jointset/ground_pelvis/pelvis_ty/accel	/jointset/hip_l/hip_flexion_l/accel	/jointset/hip_l/hip_adduction_l/accel	/jointset/hip_l/hip_rotation_l/accel	/jointset/back/lumbar_extension/accel	/jointset/patellofemoral_l/patellar_flexion_l/accel	/jointset/knee_l/knee_flexion_l/accel	/jointset/knee_l/knee_adduction_l/accel	/jointset/knee_l/knee_rotation_l/accel	/jointset/ankle_l/ankle_angle_l/accel	/jointset/subtalar_l/subtalar_angle_l/accel	gamma_cid13_p0	gamma_cid13_p1	gamma_cid13_p2	gamma_cid13_p3	gamma_cid13_p4	gamma_cid13_p5	gamma_cid14_p0
0.5	-0.2066046826393186	0.03560429452834684	0.7741642879746065	0.9718277902911168	-0.3623198733361369	-0.007899994711646681	-0.400407801468955	0.9570872236851922	0.9570872236853823	-0.02801087710583317	-0.1744631213490319	0.3206236547027478	0.1681287996666262	-0.724759583383097	-0.1686189360817419	-0.5171033097931471	2.3504180704577	0.04026324553451565	0.512427159138617	-0.3064480468099272	1.990666141991739	1.990666141991741	0.3350523106069649	0.00159041350214412	0.5313212334591493	0.2822540232093763	-0.09970954628319695	0.07961600436369712	-0.002652736942327564	-0.1989107916982015	0.0111124046086576	-0.01815448431171336	0.1137312157826374	-23.8652036225566	17.00006404167054	-8.630466609051719	0.9932538442722993	-438.9975676360256	-24.0357902089702	-4.923731825506337	0.282833020991852	0.3514888274786089	-0.4867785498031661	-1.060289861100674	0.07739907055048321	-0.7844368710019394	1.372408636766491	-1.53952751348083	-1.539527513480844	-0.1765185544432789	0.006476967921330104	-0.921019859555696	0.04734363240974115	-4.711841934381349e-07	3.643865462377541e-09	6.878993450615662e-06	4.059653527725555e-07	-1.375264436529126e-06	-1.175427274803918e-06	-8.063240473714765e-07
0.51	-0.2138360343571036	0.03393599580463087	0.7689702326681483	0.9952739329621179	-0.3619159670541007	-0.002809414240879393	-0.4034044840709904	0.9769132093463209	0.9769132093463879	-0.02467861447283782	-0.1744470624049881	0.3258891501825287	0.1709491659105779	-0.7214049291210269	-0.1650178454792759	-0.5215867716595971	2.338483653995332	0.04052674859579811	0.5055308084356889	-0.2928561269885867	1.974242319922211	1.974242319922213	0.3314969815233189	0.001550562749100385	0.521703472501408	0.2817850070822828	-0.1043153585659418	0.08082592105907774	-0.003177977089568357	-0.2013589646844615	0.00970159251752758	-0.01757663670582622	0.1172741668163022	-24.52217073060909	17.06657134883173	-8.872302764746113	1.136330353528368	-442.2922002460984	-23.98449200499154	-4.296103680724904	0.3776338846121319	0.3679488004830133	-0.4112518471110069	-1.309089682334621	0.001069717048755848	-0.6667471089385799	1.357435646157958	-1.736950992867157	-1.736950992867239	-0.4304354611912755	-0.01853400027147822	-0.9933144086094536	-0.1000028753752021	-4.486854159636547e-07	4.043924263383624e-07	6.843200184529593e-06	4.53770598846776e-07	-1.318705033645822e-06	-7.560990438845743e-07	-7.774489173014449e-07
0.52	-0.2210306690811094	0.0323044139117097	0.7637349183746172	1.018590917039794	-0.3615093769828247	0.002207300135060489	-0.4062642770765426	0.9965663284989295	0.9965663284988477	-0.02137898420591135	-0.1744332655491229	0.3310562360137846	0.1737636462652375	-0.7174161846270507	-0.1612755699227787	-0.5253551072078037	2.324586351791771	0.04080000338233708	0.4976539401727495	-0.2790701275136288	1.95609284028555	1.956092840285552	0.3285258374050401	0.001137995861878195	0.5116393037546247	0.281076845350936	-0.1089211708486288	0.08203583775447904	-0.003703217237285564	-0.2038071376707161	0.008290780426404512	-0.01699878909989833	0.1208171178500205	-25.17394074889001	17.12339381241387	-9.102567717823566	1.237024292143223	-445.5009202503682	-24.04875079095597	-3.717507233452013	0.4096510673731182	0.3797258182847972	-0.3437532861545012	-1.45286700933941	0.07934941560170998	-0.9805403830043089	1.41122456749	-1.884659026907499	-1.884659026907487	-0.05968156136985786	-0.06806625891452463	-1.010301417364143	-0.0004854884410033832	-4.235237391524329e-07	8.693938271529034e-07	6.811345818997457e-06	5.104172932427777e-07	-1.267418597411761e-06	-3.187215689129332e-07	-7.409010469858918e-07
0.53	-0.2281824867541428	0.03071093321566095	0.7584655188796086	1.041759475951166	-0.3611000091116128	0.007143580387403148	-0.4089852631291478	1.016029604282094	1.016029604282139	-0.01810864521823879	-0.174423657993833	0.3361205802086707	0.1765697451721999	-0.7128485008204668	-0.1573992285220181	-0.5283989861722157	2.308801090467021	0.04105450452648423	0.4896770086083034	-0.2651152570753425	1.936282699211149	1.93628269921115	0.3254054641202339	0.0008115096679925903	0.5011575819123192	0.2800619988862627	-0.1133331434779768	0.08286316067444259	-0.004041753163266098	-0.2068051061055147	0.007372523136030045	-0.01655344365771589	0.1242002020427731	-25.69383642909986	17.24189938307712	-9.373770795833073	1.279524957543835	-448.8891208990567	-24.11568052156951	-3.186941415893585	0.4951407456431423	0.3948974498020235	-0.2660824544064103	-1.690048388222895	-0.005478153863679853	-0.6957363642809791	1.389392171867837	-2.070989877227174	-2.070989877227258	-0.4585092947091913	-0.009408618510811017	-1.077861422081599	-0.1651120051761057	-3.994005965353642e-07	1.216592067929925e-06	6.722200234844774e-06	5.481116670383019e-07	-1.204448009091986e-06	7.81962479234999e-08	-7.110169399604467e-07
